<?xml version="1.0" encoding="utf-8"?>
<!-- Generator: Adobe Illustrator 25.3.1, SVG Export Plug-In . SVG Version: 6.00 Build 0)  -->
<svg version="1.1" id="Ebene_1" xmlns="http://www.w3.org/2000/svg" xmlns:xlink="http://www.w3.org/1999/xlink" x="0px" y="0px"
	 viewBox="0 0 174 167.1" style="enable-background:new 0 0 174 167.1;" xml:space="preserve">
<style type="text/css">
	.st0{fill:#9EAA1D;}
</style>
<path class="st0" d="M105.1,84.7c-2.1,3.9-3.9,8-6.4,11.7c-0.9,1.4-3.2,2.1-5,2.9c-0.8,0.3-2.3-0.2-2.6,0.2
	c-3.4,4.1-6.4,3.4-9.3-1.1c-0.1-0.1-0.3-0.2-0.5-0.1l-0.1,0.1c-1.2,2.9-2.1,5-3,7.1c-3.1,7.4-5,7.7-13.4,4.7
	c-0.2-0.1-0.2-0.2-0.2-0.4c0-0.1,0.1-0.2,0.3-0.2c7-0.6,7-1.6,7.7-4.2c2.5-7.1-1-18.4-9.6-26.1c-0.1-0.1-0.3-0.1-0.5,0l-0.1,0.1
	c-0.8,2.9-1.4,5.7-2.3,8.3c-0.3,0.8-1.4,1.4-2.3,2c-0.1,0.1-0.4,0.1-0.5-0.1l0,0c-0.5-0.9-1.2-1.9-1.1-2.8c0.6-4.2,1.5-8.4,2.2-12.7
	c0.3-1.7,0.4-11.4,0.6-13.1c-1.1,2-1.1,4-1.9,7.6c-1.1,5.6-1.9,11.2-3.2,16.8c-1.2,4.7-3.1,9.3-4.5,14c-0.7,2.2-0.7,4.5-1.2,6.8
	c-0.6,3-1,6.7-5.2,6.5c-2.9-0.1-6.5-1.5-8.2-3.5c-1.3-1.5-0.4-4.6-0.3-8.1c0-0.2,0.2-0.3,0.4-0.3H35l4.4,2.4c0.1,0.1,0.3,0.1,0.4,0
	c2.3-2.1,2.1-11,0.2-15.3c-3.6-7.8-7-15.7-10.2-23.7c-2.4-6-4.5-12.1-6.7-18.1c-0.1-0.2-0.3-0.3-0.4-0.2c0,0,0,0-0.1,0
	C17.9,49.2,16.2,56.4,7.8,56c-0.2,0-0.3,0.1-0.3,0.3l0,0c0.9,7.6,1.8,15.2,2.8,23.2c0,0.2-0.1,0.3-0.3,0.3H9.9
	c-4.4-1.6-5.8-4.4-6-8.1c-0.3-4.8-0.5-9.6-1.2-14.3c-0.3-2.4-1.7-4.6-2.4-7c-0.3-1-0.4-2.3-0.3-3.6c0-0.2,0.1-0.3,0.3-0.3h0.1
	c1.5,0.3,3.1,0.4,4.3,1.1c1.6,1.1,1.8,4.5,3.9,4.6h0.1c7.3-2,11-9.7,16.6-16.5c0.1-0.1,0.3-0.2,0.4-0.1c0.1,0,0.1,0.1,0.1,0.2
	c4,19.9,11.2,38.9,21.5,56.4c0.1,0.2,0.3,0.2,0.4,0.1c0.1,0,0.1-0.1,0.1-0.2c0.9-2.9,2.1-5.7,2.4-8.6c1.4-12.7,1-25.8,4.2-38.1
	c3.7-14.6,9.8-28.9,26.7-35.5c7.2-2.8,14.3-6.3,21.8-8c18.5-4.2,35.1-1.8,47.4,13.8c4.1,5.3,9.4,9.8,14,14.7
	c10.7,11.5,11.2,24.8,7.8,38.8c-0.6,2.6-1.6,5.1-2,7.8c-1.8,10.7-7.1,19.6-15.2,27.4c-8.4,8.1-16.2,16.9-24.9,24.7
	c-5.9,5.3-13.8,7.4-22.1,7.6c-5.6,0.1-9.2-3.4-9-8.7c0.2-8.4,2.6-16.3,8.5-22.6c6.7-7.2,0.6-18.5-0.9-25.6c0-0.2-0.2-0.3-0.4-0.3
	c-0.1,0-0.2,0.1-0.3,0.3C105.7,81.6,105.5,84.7,105.1,84.7z M127.8,61.2c0.1,0.2,0.3,0.3,0.4,0.2c0.1,0,0.1-0.1,0.1-0.1
	c0.9-1,1.7-2,2.4-3.1c1.7-3.8,3-7.7,5.1-11.2c0.8-1.3,3.2-1.9,5-2.7c0.2-0.1,0.3,0,0.4,0.1v0.1c0.1,1.6-1.7,2.4-2.3,3.7
	c-2.9,6.7-4.1,10.3-3,18c1,7,2,8,6,9l0,0c3,1.2,4.7-2.4,5-4c0.8-4.5,1.9-10.4,2-15s-2.8-9.5-2.7-14.1c0-1,1.2-2,2-2.9
	c0.1-0.1,0.3-0.1,0.4,0c1,0.6,1.9,1.4,2.6,2.3c0.6,1.3,1,2.6,1.3,4c0.1,0.2,0.2,0.3,0.4,0.2c0.1,0,0.2-0.1,0.2-0.2
	c0.4-2.5,0.6-4.9,0.6-7.4c0.1-1.2,0.8-2.2,1.8-2.8c0.9-0.3,2.4,0.4,3.4,1c1.3,0.9,2.6,1.8,3.9,2.8c0.1,0.1,0.4,0.1,0.5-0.1
	c0,0,0,0,0-0.1c0.4-1.2,0.4-1.9,0-2.3c-6.2-6.7-12.2-13.6-18.5-20.2c-5.9-6.1-18-11.3-26.8-11.6C105.8,4.4,94.8,7.7,83.9,13
	c-15,7.3-22.6,17.7-21.2,33.5c0.7,8.5,0.6,17.3,3.2,25.4c2,6.5,6.9,12.2,10.8,18.3c0.1,0.1,0.3,0.2,0.4,0.1s0.1-0.2,0.1-0.3
	c-0.6-3.6-1-7.2-1.1-10.8c0-1.9,1.3-3.8,2.2-5.8c0.1-0.2,0.3-0.2,0.5-0.1l0.1,0.1c1,1.7,2.4,3.4,2.7,5.1c0.5,3.1-0.2,6.4,0.3,9.6
	c0.4,2.6,1.8,5.1,2.7,7.7c0.1,0.1,0.2,0.2,0.3,0.2l1.6-0.2c0.1,0,0.2-0.1,0.2-0.2c0.5-1.3,1-2.7,1.3-4.2c0.5-3.7,0.6-7.5,1.4-11.2
	c0.2-1.2,1.5-2.2,2.4-3.3c0.1-0.1,0.3-0.2,0.4-0.1c0,0,0,0,0.1,0.1c0.8,1,1.9,2,2.2,3.1c0.6,2.4-0.3,10.5,0.2,14.1
	c0,0.3,0.9-1.8,1.1-2c1.2-1.5,2.3-5.4,2.5-6c2.3-9.4,4.9-18.6,3-28.5c-1.3-6.8-1.3-13.8-1.6-20.8c0-1,1.2-2,2.1-3
	c0.1-0.1,0.3-0.1,0.4,0c1.1,0.7,2,1.5,2.9,2.5c0.5,0.9,0.8,2,0.8,3.1c0.8,6.1,1.6,12.2,2.5,19.3c0,0.2,0.2,0.3,0.4,0.3
	c0.1,0,0.2-0.1,0.2-0.2c3.9-8,6.6-15.1,5.6-23.1c-0.2-1.4,1-2.9,1.7-4.4c0.1-0.2,0.3-0.2,0.4-0.1c0,0,0.1,0,0.1,0.1
	c1.3,1.2,3.1,2.4,3.5,3.9C122.8,43.3,125,51.5,127.8,61.2z M117.9,51.4c-0.1-0.2-0.3-0.2-0.5-0.1c-0.1,0-0.1,0.1-0.1,0.1
	c-1.4,2.9-2.6,4.9-3.3,7.1c-1.5,5-4,10.3-3.5,15.2c0.7,7.1,3.9,13.9,5.7,20.9c0.2,1.4-0.1,2.8-0.8,4c-1.7,3.6-4.1,6.9-5.4,10.6
	c-2.1,6.2-3.8,12.5-5,19c-0.6,3.6,1.6,5.4,6,4.9c7.7-0.7,15-4,20.5-9.5c12.6-12.2,26.4-23.8,32-40.4c3.3-10.2,5.3-20.7,6-31.4
	c0.5-6.5-6.6-10.1-9.9-10.8c-0.7-0.2-1.4,0.3-1.6,1c0,0.1,0,0.2,0,0.3c0.6,7.5,1.9,18,2.3,25.3c0.2,3.5,0.8,7.5-4.1,9.7
	c-0.2,0.1-0.4,0-0.4-0.1c-1.1-2.7-1.7-16.9-2.9-21.1c0-0.2-0.2-0.3-0.4-0.2c-0.1,0-0.2,0.1-0.2,0.2c-0.6,4-1.4,17.7-2,18
	c-3,1.9-6.2,4.9-9.4,5c-2,0.1-4.6-4-6.3-6.5c-1.3-2-1.6-4.6-2.4-6.9c-0.1-0.2-0.2-0.3-0.4-0.2l-1.3,0.3c-0.2,0-0.3,0.2-0.2,0.3l0,0
	c2,6.8,4,13.5,6.1,20.3l-2.8,1.2C125.9,76.9,123.9,63.6,117.9,51.4L117.9,51.4z"/>
<path class="st0" d="M63.8,66.2c0,0,6.2-10,4.2-15c0,0-3-13-7,5l0.5-9.5c0,0,5-10,9,1c0,0,1.5,3.5,0,10.1L62.4,80"/>
<path class="st0" d="M123.4,64.4c-1.5,0.8-3,1.8-4.3,2.8c-0.6,0.7-0.6,1.7,0,2.4c0.7,1,2,1.2,3,0.6l2.6-1.8l1.6-0.9l-0.3-2.3
	L123.4,64.4z"/>
<path class="st0" d="M141,44.2c0,0,3,0,2,8c0,0,0.2,7.9-6.9,11.4l-2.1,0.6l-1-3c0,0,4-1,5-4s3.8-9.4,3-10c-1-0.8-0.8,0-2,0"/>
</svg>
